# xmcd
#
# Track frame offsets: 
#        150
#        16912
#        30412
#        48225
#        60668
#        84069
#        96303
#        114642
#        125198
#        141612
#        159164
#        177140
#        203470
#        218679
#        235650
#        261151
#        278168
#
# Disc length: 3916 seconds
#
# Revision: 0
# Processed by: cddbd v1.5.2PL0 Copyright (c) Steve Scherf et al.
# Submitted via: ExactAudioCopy v0.95b4
#
DISCID=e00f4a11
DTITLE=Lacasa Del Cid - Lonestar
DYEAR=1900
DGENRE=Country
TTITLE0=Remote View
TTITLE1=An Advice
TTITLE2=After All Those Years
TTITLE3=A New Set Up
TTITLE4=Long Rider Tale
TTITLE5=Oh Satan
TTITLE6=Son Of A Gun
TTITLE7=Hard On The Edge
TTITLE8=Regular Shock
TTITLE9=Frontline Is Doing Fine
TTITLE10=Unbelieveable Silent
TTITLE11=Philosoph
TTITLE12=Remote View (Scarlet Fever Mix By Timothy Moldrey)
TTITLE13=Philosoph (Special Edit By Lacasa Del Cid)
TTITLE14=Remote View (Remixx By Zelle 40)
TTITLE15=Philosoph (Remixx By Jose Alvarez Brill)
TTITLE16=Remote View (Remixx By The Fairsex and Rotersand)
EXTD=
EXTT0=
EXTT1=
EXTT2=
EXTT3=
EXTT4=
EXTT5=
EXTT6=
EXTT7=
EXTT8=
EXTT9=
EXTT10=
EXTT11=
EXTT12=
EXTT13=
EXTT14=
EXTT15=
EXTT16=
PLAYORDER=
